<?xml version="1.0" encoding="UTF-8" standalone="no"?>
<!DOCTYPE svg PUBLIC "-//W3C//DTD SVG 1.1//EN" "http://www.w3.org/Graphics/SVG/1.1/DTD/svg11.dtd">
<svg width="100%" height="100%" viewBox="0 0 1024 1024" version="1.1" xmlns="http://www.w3.org/2000/svg" xmlns:xlink="http://www.w3.org/1999/xlink" xml:space="preserve" xmlns:serif="http://www.serif.com/" style="fill-rule:evenodd;clip-rule:evenodd;stroke-linejoin:round;stroke-miterlimit:2;">
	<g id="Path" transform="matrix(14.2222,0,0,14.2222,-455.109,-418.551)">
		<path d="M47.89,48.264C47.89,48.264 47.95,56.804 52.335,65.636C56.84,74.137 63.051,79.598 68.175,81.773C73.469,79.298 78.584,75.002 81.375,70.374L66.841,70.374C63.08,67.257 60.121,62.086 59.441,56.109L102.08,56.109C99.977,65.719 95.516,74.458 91.265,80.023C85.366,87.74 77.366,93.629 68.206,97L68.072,97C52.779,90.907 44.552,81.309 39.123,70.481C35.641,63.541 32,50.941 32,34L104,34C104.012,38.771 103.691,43.537 103.04,48.264L47.89,48.264Z" style="fill:rgb(245,196,0);fill-rule:nonzero;"/>
	</g>
</svg>
